<svg width="298" height="86" viewBox="0 0 298 86" fill="none" xmlns="http://www.w3.org/2000/svg">
<g clip-path="url(#clip0_72_1867)">
<path d="M174.52 56.57C174.34 56.41 174.1 56.27 173.79 56.13H173.78H173.77H173.76H173.75H173.74H173.73H173.72H173.71H173.7H173.69H173.68H173.67L173.65 56.12L173.61 56.1L173.59 56.09H173.58H173.57H173.56H173.55H173.54H173.53H173.52H173.51H173.5H173.49H173.48L173.47 56H173.46H173.45C173.34 55.96 173.23 55.91 173.11 55.87H173.1L173.07 55.86H173.06H173.05H173.04H173.03H173.02H173.01L172.99 55.85H172.98L172.93 55.83L172.87 55.81C172.76 55.77 172.64 55.74 172.53 55.7H172.52H172.51H172.5H172.48H172.47H172.46H172.45H172.44H172.42L172.38 55.69H172.37H172.36C172.32 55.68 172.28 55.67 172.24 55.66H172.23H172.22H172.21H172.2H172.19C172.08 55.63 171.96 55.6 171.85 55.57H171.84H171.83H171.82H171.81H171.8H171.79H171.78H171.77H171.76H171.75H171.74H171.73H171.72H171.71H171.7H171.69H171.68H171.67H171.66H171.65H171.64H171.63H171.62H171.61H171.6H171.59H171.58H171.57H171.56H171.55H171.54H171.53H171.52H171.51C171.4 55.54 171.29 55.52 171.17 55.49C170.95 55.44 170.73 55.4 170.49 55.35H170.48H170.47C170.31 55.32 170.15 55.29 170 55.27H169.99L169.6 55H169.59H169.58H169.57H169.56H169.54H169.53H169.52H169.51H169.5H169.49H169.48H169.47H169.46H169.45H169.44H169.43H169.42H169.41H169.4H169.39H169.38H169.37H169.36C169.24 54.98 169.13 54.96 169.02 54.95H169.01H169H168.99H168.98H168.97H168.96H168.95H168.94H168.93H168.92H168.91H168.9H168.89H168.88H168.87H168.86H168.85H168.84H168.83H168.82H168.81H168.8H168.79H168.78H168.77H168.76H168.75H168.74H168.73H168.72H168.71H168.7C168.55 54.93 168.4 54.91 168.25 54.89H168.24L168.15 54.88H168.14H168.13H168.12H168.11H168.1H168.09L168.02 54.87C167.91 54.86 167.79 54.84 167.68 54.83C167.62 54.82 167.56 54.82 167.5 54.81C167.33 54.79 167.17 54.77 167 54.76C166.77 54.74 166.54 54.72 166.32 54.7H166.31H166.3H166.29H166.28H166.27H166.26H166.25H166.24H166.23H166.22H166.2H166.19H166.18H166.17H166.16H166.12H166.11H166.1H166.09H166.08H166.07H166.01H166C165.89 54.69 165.77 54.69 165.66 54.68H165.64H165.63H165.62H165.61H165.6H165.59H165.58H165.57H165.56H165.55H165.54H165.53H165.52H165.51H165.49H165.48H165.46H165.45H165.44H165.43H165.41H165.4H165.39H165.38H165.37H165.36H165.35H165.34H165.33H165.32H165.31C165.2 54.68 165.08 54.67 164.97 54.67H164.95H164.94H164.92H164.91H164.9H164.89H164.88C164.82 54.67 164.76 54.67 164.69 54.66H164.68H164.67C164.55 54.66 164.42 54.65 164.29 54.65C164.26 54.65 164.23 54.65 164.19 54.65H164.15H164.12H164.11H164.1H164.09H164.08H164.06H164.05H164.03H164.01H164H163.99H163.98H163.97C163.85 54.65 163.73 54.65 163.61 54.64H163.6H163.59H163.58H163.52H163.48H163.47H163.36H163.35H163.34H163.33H163.32H163.29C163.18 54.64 163.06 54.64 162.95 54.64H162.94H162.93H162.92H162.91H162.9H162.89H162.88H162.87H162.86H162.85H162.84H162.83H162.82H162.81H162.8H162.79H162.78H162.77H162.76H162.75H162.74H162.73H162.72H162.71H162.7H162.69H162.68H162.67H162.66H162.65H162.64H162.63H162.62H162.61C162.5 54.64 162.38 54.64 162.27 54.64H162.26H162.25H162.24C162.03 54.64 161.81 54.64 161.59 54.64H161.58H161.56H161.54H161.52H161.5H161.48H161.46H161.44H161.42H161.4H161.38H161.36H161.34H161.32H161.3H161.28H161.26H161.24H161.22H161.2H161.18H160.84H160.83H160.81H160.79H160.77H160.75H160.73H160.7H160.68H160.66H160.64H160.62H160.6H160.57H160.55H160.53H160.51H160.49H160.47H160.45H160.43H160.1H159.76H159.42H159.08H158.74H158.4H158.06H157.72H157.38H157.04H156.7H156.36H156.02H155.68H155.34H155H154.66H154.32H153.98H153.64H153.3H152.96H152.62H152.28H151.94H151.6H151.26H150.92H150.58H150.24H149.9H149.56H149.22H148.88H148.54H148.2H147.86H147.52H147.18H146.84H146.5H146.16H145.82H145.48H145.14H144.8H144.46H144.12H143.78H143.44H143.1H142.76H142.42H142.08H141.74H141.4H141.06H140.72H140.38H140.04H139.7H139.36H139.02H138.68H138.34H138H137.66H137.32H136.98H136.64H136.3H136.22H135.96H135.62H135.28H134.94H134.6H134.26H133.92H133.58H133.24H132.9H132.56H132.22H131.88H131.54H131.2H130.86H130.52H130.18H129.84H129.5H129.16H128.82H128.48H128.14H127.8H127.46H127.12H126.78H126.44H126.1H125.76H125.42H125.08H124.74H124.4H124.06H123.72H123.38H123.04H122.7H122.36H122.02H121.68H121.34H121H120.66H120.32H119.98H119.64H119.3H118.96H118.62H118.28H117.94H117.6H117.26H116.92H116.58H116.24H115.9H115.56H115.22H114.88H114.54H114.2H113.86H113.52H113.23H113.18H112.84H112.5H112.16H111.82H111.48H111.14H110.8H110.46H110.12H109.78H109.44H109.1H108.76H108.42H108.08H107.74H107.4H107.06H106.72H106.38H106.04H105.7H105.36H105.02H104.68H104.34H104H103.66H103.32H102.98H102.64H102.3H101.96H101.62H101.28H100.94H100.6H100.26H99.7H99.36H99.02H98.68H98.34H98H97.66H97.32H96.98H96.64H96.3H95.96H95.6H95.26H94.92H94.58H94.29H94.24H93.9H93.56H93.22H92.88H92.54H92.2H91.86H91.5H91.16H90.82H90.48H90.14H89.8H89.46H89.12H88.78H88.44H88.1H87.76H87.42H87.08H86.74H86.4H86.06H85.7H85.36H85.02H84.68H84.34H84H83.66H83.32H82.98H82.64H82.3H81.96H81.6H81.26H80.92H80.58H80.24H79.9H79.56H79.22H78.88H78.54H78.2H77.86H77.52H77.18H76.84H76.5H76.16H75.8H75.46H75.12H74.78H74.44H74.1H73.76H73.42H73.08H72.74H72.4H72.06H71.7H71.36H71.02H70.68H70.34H70H69.66H69.32H68.98H68.64H68.3H67.96H67.6H67.26H66.92H66.58H66.24H65.9H65.56H65.22H64.88H64.54H64.2H63.86H63.52H63.18H62.84H62.5H62.16H61.8H61.46H61.12H60.78H60.44H60.1H59.76H59.42H59.12H59.08H58.74H58.4H58.06H57.7H57.36H57.02H56.68H56.34H56H55.66H55.32H54.98H54.64H54.3H53.96H53.62H53.28H52.94H52.6H52.26H51.9H51.56H51.22H50.88H50.54H50.2H49.86H49.52H49.18H48.84H48.5H48.16H47.8H47.46H47.12H46.78H46.44H46.1H45.76H45.42H45.08H44.74H44.4H44.06H43.7H43.36H43.02H42.68H42.34H42H41.66H41.32H40.98H40.64H40.3H39.96H39.62H39.28H38.94H38.6H38.26H37.9H37.56H37.22H36.88H36.54H36.2H35.86H35.52H35.18H35.07H34.83H34.49H34.15H33.8H33.46H33.12H32.78H32.44H32.1H31.76H31.42H31.08H30.74H30.4H30.06H29.7H29.36H29.02H28.68H28.34H28H27.66H27.32H26.98H26.64H26.3H25.96H25.62H25.28H24.94H24.6H24.26H23.9H23.56H23.22H22.88H22.54H22.2H21.86H21.52H21.18H20.84H20.5H20.16H19.8H19.46H19.12H18.78H18.44H18.1H17.76H17.42H17.08H16.74H16.4H16.06H15.72H15.38H15.04H14.7H14.36H14H13.66H13.32H12.98H12.64H12.3H11.96H11.62H11.28H10.94H10.6H10.26H9.9H9.56H9.22H8.88H8.54H8.19H7.85H7.51H7.17H6.83H6.49H6.15H5.8H5.46H5.12H4.78H4.44H4.1H3.76H3.41H3.07H2.73H2.39H2.05H1.71H1.37H1.02H0.68H0.34H0V54.65V54.66V54.67V54.68V54.69V54.7V54.71V54.72V54.73V54.74V54.75V54.76V54.77V54.78V54.79V54.8L0.01 54.81C0.02 54.82 0.02 54.83 0.03 54.84V54.85V54.86C0.04 54.87 0.04 54.87 0.05 54.88C0.06 54.89 0.06 54.9 0.07 54.9L0.08 54.91C0.2 55.03 0.39 55.15 0.62 55.27C0.82 55.38 1.06 55.48 1.32 55.58H1.33H1.34H1.35L1.4 55.6H1.41H1.42H1.43H1.44H1.45H1.46H1.47H1.48L1.49 55.61L1.52 55.62H1.53H1.54L1.56 55.63H1.57H1.58H1.59L1.61 55.64L1.63 55.65H1.64C1.75 55.69 1.87 55.73 1.98 55.77H1.99H2H2.01H2.02H2.03H2.04H2.05H2.06H2.07H2.08H2.09H2.1H2.11H2.12H2.13H2.14H2.15H2.16H2.17H2.18H2.19H2.2H2.21H2.22H2.23H2.24H2.25H2.26H2.27H2.28H2.29H2.3H2.31C2.42 55.8 2.54 55.84 2.65 55.87H2.66H2.67H2.68H2.69H2.7L2.73 55.88H2.74H2.75H2.76H2.77H2.78H2.79H2.8H2.81H2.82H2.83H2.84H2.85H2.86H2.87H2.88L2.9 55.89L2.93 55.9H2.94H2.95H2.96H2.97H2.98C3.09 55.93 3.21 55.96 3.32 55.98H3.33H3.34H3.35H3.36H3.37H3.38H3.39H3.4H3.41H3.42H3.43H3.44H3.45H3.46H3.47H3.48H3.49H3.5H3.51H3.52H3.53H3.54H3.55H3.56H3.57H3.58H3.59H3.6H3.61H3.62H3.63H3.64H3.65C3.77 56.01 3.88 56.03 3.99 56.05C4.11 56.07 4.22 56.09 4.33 56.11H4.34H4.35H4.37H4.38H4.39H4.4H4.41H4.42H4.43H4.44H4.45H4.47H4.48H4.5H4.51H4.52H4.53H4.54H4.55H4.56H4.57H4.58H4.59H4.6H4.61H4.62H4.63H4.64H4.65H4.66H4.67C4.78 56.13 4.9 56.15 5.01 56.17H5.03H5.04H5.05H5.06H5.07H5.08H5.09H5.1H5.11H5.12H5.13H5.14H5.15H5.16H5.17H5.18H5.19H5.2H5.21H5.22H5.23H5.24H5.25H5.26H5.27H5.28H5.29H5.3H5.31H5.32H5.33H5.34C5.45 56.19 5.57 56.2 5.68 56.22H5.69H5.7H5.71H5.72H5.73H5.74H5.75H5.76H5.77H5.78H5.79H5.8H5.81H5.82H5.83H5.84H5.85H5.86H5.87H5.88H5.89H5.9H5.91H5.92H5.93H5.94H5.95H5.96H5.97H5.98H5.99H6H6.01H6.02H6.03H6.04C6.15 56.24 6.27 56.25 6.38 56.26H6.39H6.4H6.41H6.42H6.43H6.44H6.45H6.46H6.47H6.48H6.49H6.5H6.51H6.52H6.53H6.54H6.55H6.56H6.57H6.58H6.59H6.6H6.61H6.62H6.63H6.64H6.65H6.66H6.67H6.68H6.69H6.7H6.71H6.72C6.83 56.27 6.95 56.29 7.06 56.3H7.07H7.09H7.1L7.15 56.31H7.16L7.21 56.32L7.26 56.33H7.27H7.3H7.31C7.45 56.34 7.59 56.36 7.73 56.37H7.74H7.75H7.76H7.78H7.79H7.8H7.81H7.82H7.83H7.84H7.85H7.86H7.87H7.88H7.89H7.9H7.91H7.92H7.93H7.94H7.95H7.96H7.98H7.99H8H8.01H8.02H8.03H8.04C8.15 56.38 8.27 56.39 8.38 56.39H8.44H8.45H8.46H8.47H8.49H8.5L8.62 56.4H8.7H8.71H8.72H8.73C8.84 56.41 8.96 56.41 9.07 56.42H9.08H9.09H9.1H9.11H9.12H9.13H9.14H9.15H9.16H9.17H9.18H9.19H9.2H9.21H9.22H9.23H9.24H9.25H9.26H9.27H9.28H9.29H9.3H9.31H9.35H9.36H9.37H9.38H9.39H9.4C9.51 56.42 9.63 56.43 9.74 56.43H9.75H9.76H9.77H9.78H9.79H9.8H9.81H9.82H9.83H9.84H9.85H9.86H9.87H9.88H9.89H9.9H9.91H9.92H9.93H9.94H9.95H9.96H9.97H9.98H9.99H10H10.02H10.03H10.04H10.05H10.06H10.07C10.18 56.43 10.3 56.44 10.41 56.44H10.42H10.43H10.45H10.46H10.47H10.48H10.49H10.51H10.52H10.53H10.55H10.57H10.58H10.59H10.6H10.61H10.62H10.63H10.64H10.65H10.66H10.67H10.68H10.69H10.7H10.71H10.72H10.73H10.74C10.85 56.44 10.97 56.44 11.08 56.44H11.09H11.1H11.11H11.12H11.13H11.14H11.15H11.16H11.17H11.18H11.19H11.2H11.21H11.22H11.23H11.24H11.25H11.26H11.27H11.28H11.29H11.3H11.31H11.32H11.33H11.34H11.35H11.36H11.37H11.38H11.39H11.4H11.41C11.56 56.44 11.72 56.44 11.88 56.44H11.9H11.92H12.01H12.35H12.69H13.03H13.37H13.71H14.05H14.39H14.73H15.07H15.41H15.75H16.09H16.43H16.77H17.11H17.45H17.79H18.13H18.47H18.81H19.15H19.49H19.83H20.17H20.51H20.85H21.19H21.53H21.87H22.21H22.55H22.89H23.23H23.57H23.91H24.25H24.59H24.93H25.27H25.61H25.95H26.29H26.63H26.97H28H28.34H28.68H29.02H29.36H29.7H30.04H30.38H30.72H31.06H31.4H31.74H32.08H32.42H32.76H33.1H33.44H33.78H34.12H34.46H34.8H35.04H35.15H35.49H35.83H36.17H36.51H36.85H37.19H37.53H37.87H38.21H38.55H38.89H39.23H39.57H39.91H40.25H40.59H40.93H41.27H41.61H42H42.34H42.68H43.02H43.36H43.7H44.04H44.38H44.72H45.06H45.4H45.74H46.08H46.42H46.76H47.1H47.44H47.78H48.12H48.46H48.8H49.14H49.48H49.82H50.16H50.5H50.84H51.18H51.52H51.86H52.2H52.54H52.88H53.22H53.56H53.9H54.24H54.58H54.92H55.26H55.6H56H56.34H56.68H57.02H57.36H57.7H58.04H58.38H58.72H59.06H59.1H59.4H59.74H60.08H60.42H60.76H61.1H61.44H61.78H62.12H62.46H62.8H63.14H63.48H63.82H64.16H64.5H64.84H65.18H65.52H65.86H66.2H66.54H66.88H67.22H67.56H67.9H68.24H68.58H68.92H69.26H69.6H69.94H70.28H70.62H70.96H71.3H71.64H71.98H72.32H72.66H73H73.34H73.68H74.02H74.36H74.7H75.04H75.38H75.72H76.06H76.4H76.74H77.08H77.42H77.76H78.1H78.44H78.78H79.12H79.46H79.8H80.14H80.48H80.82H81.16H81.5H81.84H82.18H82.52H82.86H83.2H83.54H83.88H84.22H84.56H84.9H85.24H85.58H85.92H86.26H86.6H86.94H87.28H87.62H87.96H88.3H88.64H88.98H89.32H89.66H90H90.34H90.68H91.02H91.36H91.7H92.04H92.38H92.72H93.06H93.4H93.74H94.08H94.13H94.42H94.76H95.1H95.44H95.78H96.12H96.46H96.8H97.14H97.48H97.82H98.16H98.5H98.84H99.18H99.52H99.86H100.2H100.54H100.88H101.22H101.56H101.9H102.24H102.58H102.92H103.26H103.6H103.94H104.28H104.62H104.96H105.3H105.64H105.98H106.32H106.66H107H107.34H107.68H108.02H108.36H108.7H109.04H109.38H109.72H110.06H110.4H110.74H111.08H111.42H111.76H112.1H112.44H112.78H112.83H113.12H113.46H113.8H114.14H114.48H114.82H115.16H115.5H115.84H116.18H116.52H116.86H117.2H117.54H117.88H118.22H118.56H118.9H119.24H119.58H119.92H120.26H120.6H120.94H121.28H121.62H121.96H122.3H122.64H122.98H123.32H123.66H124H124.34H124.68H125.02H125.36H125.7H126.04H126.38H126.72H127.06H127.4H127.74H128.08H128.42H128.76H129.1H129.44H129.78H130.12H130.46H130.8H131.14H131.48H131.82H132.16H132.5H132.84H133.18H133.52H133.86H134.2H134.54H134.88H135.22H135.56H135.82H135.9H136.24H136.58H136.92H137.26H137.6H137.94H138.28H138.62H138.96H139.3H139.64H139.98H140.32H140.66H141H141.34H141.68H142.02H142.36H142.7H143.04H143.38H143.72H144.06H144.4H144.74H145.08H145.42H145.76H146.1H146.44H146.78H147.12H147.46H147.8H148.14H148.48H148.82H149.16H149.5H149.84H150.18H150.52H150.86H151.2H151.54H151.88H152.22H152.56H152.9H153.24H153.58H153.92H154.26H154.6H154.94H155.28H155.62H155.96H156.3H156.64H156.98H157.32H157.66H158H158.34H158.68H159.02H159.36H159.7H160.04H160.38H160.72H161.06H161.4H161.74H162.08H162.42H162.76H163.1H163.44H163.78H164.12H164.46H164.8H165.14H165.48H165.82H166.16H166.5H166.84H167.18H167.52H167.86H168.2H168.54H168.88H169.22H169.56H169.9H170.24H170.58H170.92H171.26H171.6H171.94H172.28H172.62H172.96H173.3H174.32C174.6 56.74 174.66 56.7 174.52 56.57Z" fill="url(#paint0_linear_72_1867)"/>
<path d="M212.22 57.02C212.22 57.09 212.23 57.17 212.26 57.24C212.28 57.32 212.32 57.39 212.36 57.45C212.79 58.12 213.73 58.23 214.42 58.01C214.91 57.86 215.42 57.74 215.93 57.65C216.45 57.56 216.93 57.28 217.21 56.83C217.28 56.71 217.34 56.58 217.34 56.44C217.34 55.98 216.8 55.6 216.4 55.49C216.03 55.39 215.64 55.46 215.29 55.58C214.75 55.76 214.18 55.89 213.61 55.92C213.04 55.97 212.21 56.34 212.22 57.02Z" fill="url(#paint1_linear_72_1867)"/>
<path d="M297.45 61.99C297.3 61.73 296.64 61.73 296.36 61.86C294.83 62.56 293.28 63.19 291.69 63.76C290.23 64.28 288.7 64.8 287.13 64.66C287.01 64.65 286.89 64.63 286.79 64.57C286.66 64.49 286.58 64.34 286.56 64.19C286.56 63.96 286.59 63.75 286.8 63.61C287.01 63.46 287.38 63.48 287.63 63.43C288.27 63.32 288.9 63.2 289.53 63.05C289.99 62.95 290.45 62.83 290.87 62.6C291.37 62.32 291.8 61.85 291.89 61.26C291.97 60.7 291.71 60.16 291.24 59.85C290.97 59.67 290.67 59.56 290.35 59.54C288.76 59.45 287.28 59.96 285.99 61.08C285.42 61.57 285 62.2 284.57 62.82C284.48 62.96 284.36 63.05 284.2 63.12C282.86 63.61 281.52 64.09 280.13 64.46C279.51 64.62 278.88 64.78 278.23 64.8C278.17 64.8 278.11 64.79 278.05 64.74C278.12 64.61 278.24 64.57 278.34 64.52C278.78 64.29 279.22 64.06 279.66 63.82C280.28 63.48 280.89 63.11 281.37 62.58C281.93 61.96 281.87 61.07 281.22 60.55C280.71 60.14 280.11 59.92 279.49 59.77C279.24 59.71 278.98 59.67 278.73 59.61C278.47 59.55 278.47 59.55 278.47 59.28C278.48 59.02 278.46 58.76 278.39 58.51C278.23 57.95 277.76 57.56 277.18 57.55C276.68 57.54 276.3 57.8 275.93 58.07C275.53 58.37 275.18 58.72 274.83 59.08C274.52 59.39 274.39 59.75 274.58 60.18C274.66 60.36 274.6 60.46 274.45 60.56C273.8 60.98 273.16 61.4 272.52 61.83C271.7 62.38 270.85 62.9 269.95 63.31C268.93 63.78 267.87 64.17 266.77 64.42C266.59 64.46 266.36 64.56 266.24 64.42C266.13 64.29 266.3 64.09 266.37 63.93C266.76 63.08 267.24 62.28 267.73 61.48C267.87 61.26 268.02 61.04 268.13 60.81C268.42 60.23 268.14 59.57 267.51 59.4C267.29 59.34 267.07 59.3 266.85 59.29C266.53 59.27 266.24 59.34 265.99 59.61C265.08 60.58 264.29 61.64 263.4 62.62C262.79 63.3 262.14 63.93 261.35 64.41C261.03 64.6 260.7 64.74 260.32 64.74C259.76 64.73 259.63 64.54 259.84 64.03C259.91 63.84 260 63.66 260.1 63.49C260.36 63.08 260.61 62.67 260.93 62.3C261.25 61.92 261.58 61.55 261.91 61.18C262.27 60.78 262.35 60.33 262.2 59.83C262.06 59.36 261.67 59.17 261.24 59.38C261.12 59.44 261.01 59.51 260.91 59.59C259.82 60.45 258.93 61.48 258.33 62.74C258.25 62.9 258.13 63.04 257.97 63.12C256.88 63.65 255.76 64.09 254.58 64.38C254.07 64.5 253.54 64.55 253.01 64.54C252.38 64.53 252.24 64.47 252.34 64.03C252.4 63.74 252.51 63.47 252.63 63.2C252.99 62.42 253.55 61.77 254.02 61.06C254.3 60.64 254.62 60.26 254.94 59.88C256.02 58.63 257.05 57.35 258.07 56.05C258.35 55.7 258.66 55.54 259.1 55.55C259.51 55.56 259.93 55.55 260.34 55.55C264.21 55.55 268.08 55.55 271.94 55.55C272.51 55.55 273.07 55.48 273.63 55.38C273.92 55.33 274.21 55.24 274.44 55.04C274.8 54.74 274.77 54.28 274.38 54.03C274.28 53.96 274.17 53.92 274.06 53.89C273.79 53.83 273.53 53.77 273.26 53.77C272 53.75 270.73 53.73 269.47 53.71C266.83 53.67 264.19 53.69 261.56 53.68C261.42 53.68 261.28 53.72 261.16 53.63C261.15 53.54 261.2 53.51 261.25 53.47C262.09 52.73 262.94 52 263.78 51.26C264.5 50.63 265.61 49.54 266.24 48.82C267.48 47.4 268.58 45.87 269.53 44.23C269.89 43.61 270.25 42.98 270.46 42.28C270.65 41.65 270.68 41.03 270.41 40.41C270.26 40.06 269.91 39.82 269.53 39.78C269.18 39.75 268.85 39.81 268.53 39.96C268.08 40.18 267.68 40.47 267.32 40.82C266.71 41.42 266.16 42.06 265.58 42.69C264.6 43.76 263.66 44.88 262.74 46C260.86 48.29 259.08 50.67 257.28 53.02C256.98 53.4 256.51 53.59 256.03 53.54C254.99 53.43 253.95 53.42 252.91 53.36C252.04 53.31 251.16 53.36 250.28 53.34C249.62 53.33 249.05 53.89 249.01 54.54C249 54.68 249.03 54.84 249.14 54.92C249.22 54.97 249.32 54.98 249.41 54.98C250.32 55.01 251.22 55.11 252.12 55.16C252.64 55.19 253.15 55.21 253.67 55.21C254.15 55.22 254.63 55.29 255.12 55.34C255.28 55.36 255.3 55.42 255.21 55.55C255.19 55.58 255.16 55.6 255.14 55.63C253.55 57.53 252.12 59.55 250.76 61.62C250.4 62.16 250.25 62.8 250.16 63.44C250.13 63.65 250.01 63.74 249.8 63.8C248.75 64.1 247.69 64.33 246.62 64.53C246.48 64.56 246.31 64.62 246.21 64.5C246.1 64.37 246.23 64.23 246.3 64.11C246.81 63.23 247.3 62.34 247.99 61.58C248.24 61.3 248.46 61 248.59 60.63C248.76 60.15 248.49 59.64 248 59.5C247.9 59.47 247.79 59.45 247.69 59.43C246.71 59.29 245.73 59.35 244.77 59.61C244.35 59.73 243.92 59.85 243.5 59.96C242.56 60.21 241.65 60.57 240.83 61.09C240 61.62 239.22 62.21 238.71 63.08C238.63 63.22 238.44 63.38 238.29 63.43C237.93 63.55 237.58 63.68 237.22 63.8C236.46 64.05 235.71 64.36 234.92 64.51C234.75 64.54 234.58 64.57 234.38 64.54C234.54 64.23 234.74 64.01 234.94 63.78C235.69 62.92 236.41 62.05 236.97 61.05C237.06 60.89 237.13 60.73 237.17 60.56C237.26 60.11 236.95 59.66 236.51 59.52C236.16 59.4 235.79 59.36 235.41 59.41C234.4 59.55 233.47 59.9 232.59 60.42C232.09 60.72 231.59 61 231.09 61.29C231.03 61.33 230.97 61.41 230.85 61.34C231.02 61.05 231.2 60.77 231.36 60.49C231.59 60.1 231.46 59.58 231.04 59.42C230.74 59.3 230.43 59.29 230.12 59.34C229.44 59.45 229 59.85 228.66 60.42C228.1 61.37 227.53 62.31 226.98 63.26C226.86 63.48 226.68 63.66 226.46 63.78C226.03 64.01 225.58 64.19 225.11 64.31C224.82 64.39 224.52 64.38 224.23 64.32C223.94 64.26 223.68 64.13 223.49 63.87C223.35 63.67 223.32 63.5 223.46 63.29C223.69 62.93 223.89 62.56 224.1 62.18C224.32 61.78 224.55 61.38 224.75 60.96C224.95 60.55 224.8 60.05 224.41 59.82C224.19 59.69 223.94 59.61 223.69 59.54C222.85 59.32 222 59.32 221.15 59.42C220.21 59.54 219.32 59.88 218.43 60.19C217.92 60.37 217.45 60.63 217.01 60.95C216.51 61.3 216.12 61.77 215.75 62.26C215.45 62.65 215.07 62.9 214.6 63.08C213.29 63.59 211.99 64.14 210.66 64.59C210.54 64.63 210.43 64.7 210.3 64.67C210.27 64.6 210.29 64.56 210.32 64.52C210.54 64.27 210.74 64.01 210.98 63.77C211.71 63.05 212.44 62.32 213.17 61.59C213.45 61.31 213.72 61.03 213.95 60.71C214.21 60.35 214.12 59.82 213.76 59.56C213.27 59.2 212.75 59.23 212.23 59.49C211.91 59.65 211.62 59.85 211.33 60.06C210.28 60.82 209.2 61.55 208.1 62.25C207.95 62.35 207.82 62.28 207.82 62.09C207.82 61.68 207.68 61.34 207.45 61.02C207.07 60.48 206.49 60.19 205.88 59.96C205.29 59.73 204.67 59.55 204.05 59.43C202.66 59.17 201.25 59.02 199.83 58.94C199.38 58.91 198.93 58.89 198.49 58.85C197.45 58.77 196.4 58.69 195.36 58.61C194.74 58.56 194.13 58.5 193.52 58.39C193.09 58.32 192.65 58.23 192.24 58.06C191.96 57.95 191.92 57.8 192.12 57.58C192.25 57.43 192.4 57.29 192.56 57.17C193.47 56.46 194.49 55.93 195.5 55.39C195.81 55.22 196.14 55.1 196.49 55.03C200.74 54.19 204.98 53.25 209.14 52C209.84 51.79 210.53 51.54 211.2 51.26C211.62 51.08 212.03 50.87 212.36 50.55C212.57 50.35 212.72 50.12 212.72 49.81C212.73 49.53 212.77 48.62 211.3 48.32C210.84 48.23 210.37 48.16 209.89 48.15C208.67 48.11 207.48 48.29 206.3 48.55C204.91 48.85 203.55 49.25 202.2 49.72C199.11 50.8 196.14 52.12 193.41 53.94C193.28 54.03 193.13 54.09 192.97 54.11C191.7 54.32 190.43 54.55 189.16 54.74C186.85 55.08 184.54 55.43 182.19 55.54C181.75 55.56 181.31 55.55 180.87 55.53C180.66 55.52 180.6 55.51 180.59 55.4C180.43 54.26 179.73 53.91 178.99 54.8C178.93 54.87 178.88 54.94 178.84 55.03C178.26 56.1 179.32 56.78 179.75 56.88C180.11 56.97 180.47 57.02 180.84 57.03C182.43 57.08 184.01 56.97 185.58 56.8C187.08 56.64 188.58 56.42 190.08 56.18C190.3 56.15 190.51 56.08 190.74 56.09C190.76 56.19 190.69 56.23 190.65 56.28C190.35 56.64 190.17 57.07 190.07 57.52C189.93 58.18 190.15 58.7 190.68 59.11C191.06 59.4 191.49 59.6 191.95 59.73C193.07 60.05 194.21 60.2 195.37 60.31C196.77 60.45 198.17 60.52 199.57 60.64C200.48 60.72 201.38 60.8 202.28 60.94C202.89 61.04 203.49 61.16 204.06 61.4C204.44 61.56 204.59 62 204.4 62.36C204.22 62.69 203.94 62.95 203.66 63.18C203.31 63.47 202.95 63.75 202.56 63.99C200.77 65.09 198.87 65.97 196.9 66.67C196.04 66.98 195.18 67.28 194.27 67.41C193.97 67.45 193.7 67.47 193.43 67.27C193.19 67.09 192.86 67.17 192.67 67.4C192.48 67.63 192.4 67.9 192.5 68.19C192.6 68.48 192.83 68.65 193.13 68.7C193.28 68.72 193.44 68.73 193.59 68.71C194.3 68.64 195 68.59 195.71 68.49C198.02 68.15 200.29 67.65 202.49 66.84C203.83 66.35 205.11 65.75 206.24 64.86C206.3 64.82 206.36 64.78 206.43 64.76C206.84 64.63 207.21 64.42 207.59 64.23C207.64 64.2 207.7 64.14 207.78 64.22C207.72 64.39 207.58 64.51 207.49 64.66C207.12 65.27 207.23 65.82 207.82 66.23C207.95 66.32 208.09 66.38 208.23 66.43C208.87 66.65 209.51 66.63 210.15 66.46C211.69 66.05 213.15 65.43 214.55 64.68C214.63 64.64 214.71 64.58 214.79 64.54C215.03 64.41 215.07 64.43 215.13 64.68C215.16 64.79 215.18 64.91 215.21 65.03C215.43 65.81 216.22 66.68 217.28 66.61C217.4 66.6 217.52 66.61 217.63 66.61C217.7 66.61 217.78 66.59 217.82 66.67C217.85 66.75 217.79 66.8 217.75 66.86C217.73 66.89 217.71 66.92 217.68 66.94C216.85 68.02 216.02 69.09 215.2 70.18C214.89 70.6 214.5 70.9 214.06 71.14C212.94 71.73 211.82 72.31 210.79 73.05C209.44 74.01 208.14 75.03 206.9 76.12C205.98 76.93 205.06 77.73 204.2 78.61C203.22 79.6 202.37 80.72 201.73 81.96C201.52 82.36 201.35 82.78 201.25 83.24C201.09 84.01 201.67 85.17 202.8 85.14C203.52 85.12 204.14 84.88 204.74 84.54C206.06 83.81 207.19 82.83 208.29 81.82C209.78 80.45 211.16 78.97 212.43 77.4C213.26 76.38 214.09 75.36 214.89 74.32C215.45 73.6 216 72.86 216.52 72.11C216.86 71.62 217.35 71.24 217.91 71.04C219.19 70.6 220.45 70.12 221.78 69.89C222.33 69.8 222.88 69.71 223.43 69.86C223.8 69.96 224.03 70.31 223.96 70.69C223.91 70.95 223.83 71.19 223.74 71.43C223.6 71.82 223.39 72.18 223.19 72.54C222.6 73.56 221.85 74.42 220.85 75.07C219.8 75.76 218.73 76.4 217.6 76.96C216.98 77.27 216.25 77.45 216.51 78.13C216.62 78.41 217.4 78.14 217.68 78.07C218.11 77.97 218.54 77.83 218.95 77.66C220.47 77.06 221.86 76.15 223.06 75.04C223.76 74.39 224.39 73.69 224.86 72.85C225.25 72.16 225.57 71.43 225.68 70.64C225.8 69.78 225.49 68.9 224.54 68.45C223.67 68.03 222.76 68.01 221.83 68.11C221 68.2 220.21 68.44 219.44 68.74C219.29 68.8 219.15 68.87 218.93 68.88C219.07 68.68 219.19 68.53 219.3 68.38C220.04 67.4 220.77 66.41 221.51 65.43C221.7 65.17 221.71 65.17 221.93 65.39C222.54 66.01 223.29 66.19 224.14 66.11C224.6 66.07 225.06 66 225.49 65.84C225.66 65.78 225.78 65.78 225.85 65.98C225.93 66.19 226.1 66.32 226.31 66.39C226.52 66.45 226.74 66.52 226.95 66.59C227.08 66.63 227.18 66.61 227.27 66.49C227.6 66.06 227.93 65.63 228.32 65.26C228.78 64.82 229.13 64.3 229.66 63.96C230.23 63.6 230.79 63.23 231.37 62.88C232.13 62.42 232.89 61.97 233.7 61.59C233.82 61.53 233.93 61.44 234.12 61.49C233.89 61.76 233.69 62 233.48 62.24C233 62.81 232.53 63.39 232.12 64.01C231.88 64.38 231.69 64.78 231.61 65.21C231.53 65.65 231.72 66.09 232.11 66.31C232.43 66.49 232.77 66.57 233.13 66.58C233.72 66.6 234.28 66.51 234.84 66.33C235.83 66 236.78 65.57 237.71 65.11C238.11 64.92 238.12 64.92 238.2 65.34C238.34 66.04 238.81 66.51 239.44 66.57C239.71 66.59 239.98 66.59 240.25 66.54C241.27 66.35 242.25 66.02 243.21 65.62C243.39 65.55 243.6 65.6 243.71 65.77C243.84 65.97 243.98 66.16 244.21 66.26C244.69 66.46 245.18 66.55 245.7 66.48C246.63 66.35 247.53 66.09 248.39 65.73C248.97 65.49 249.54 65.24 250.12 65C250.38 64.89 250.39 64.9 250.5 65.13C250.96 66.07 251.74 66.48 252.76 66.51C253.53 66.54 254.27 66.4 254.99 66.17C255.91 65.88 256.76 65.45 257.58 64.95C257.96 64.72 257.96 64.72 258.16 65.13C258.65 66.14 259.45 66.64 260.58 66.58C261.69 66.52 262.69 66.19 263.51 65.41C263.78 65.15 263.81 65.16 263.91 65.53C264.06 66.06 264.51 66.45 265.05 66.54C265.67 66.65 266.28 66.63 266.88 66.43C267.52 66.21 268.13 65.91 268.73 65.6C269.36 65.27 270 64.97 270.64 64.64C272.43 63.73 274.2 62.79 275.89 61.71C276.14 61.55 276.39 61.39 276.68 61.32C277.03 61.24 277.36 61.33 277.7 61.35C278.03 61.38 278.37 61.39 278.7 61.42C278.83 61.43 278.95 61.44 279.08 61.5C279.02 61.64 278.91 61.67 278.81 61.74C278.37 62.04 277.92 62.33 277.48 62.63C277.08 62.91 276.67 63.17 276.36 63.56C276.19 63.77 276.09 64.03 276.07 64.3C276.02 64.78 276.11 65.24 276.29 65.69C276.55 66.35 277.06 66.64 277.75 66.67C278.24 66.69 278.71 66.56 279.18 66.45C280.74 66.09 282.28 65.67 283.72 64.96C284.25 64.7 284.18 64.73 284.34 65.2C284.55 65.81 285.06 66.27 285.69 66.44C285.79 66.47 285.9 66.49 286 66.51C286.73 66.66 287.46 66.64 288.19 66.54C289.12 66.41 290.02 66.17 290.92 65.92C291.6 65.74 292.24 65.48 292.87 65.17C293.85 64.68 294.8 64.15 295.74 63.6C297.61 62.5 297.54 62.14 297.45 61.99ZM289.63 61C290.47 60.97 290.04 61.89 287.33 62.31C287.33 62.31 288.79 61.02 289.63 61ZM261.8 50.47C261.96 50.24 262.14 50.02 262.32 49.79C262.49 49.58 262.65 49.36 262.82 49.15C262.99 48.94 263.15 48.72 263.32 48.51C263.5 48.29 263.67 48.07 263.85 47.85C264.02 47.64 264.19 47.43 264.37 47.22C264.55 47 264.73 46.78 264.91 46.56C265.08 46.35 265.26 46.15 265.44 45.94C265.62 45.73 265.8 45.53 265.97 45.32C266.16 45.11 266.34 44.89 266.53 44.68C266.71 44.47 266.88 44.26 267.06 44.06C267.24 43.85 267.42 43.65 267.59 43.44C267.77 43.22 267.96 43.01 268.14 42.79C268.31 42.58 268.48 42.38 268.66 42.17C268.68 42.19 268.7 42.21 268.72 42.22C267.01 45.78 264.37 48.58 261.39 51.11C261.45 50.85 261.65 50.68 261.8 50.47ZM208.89 49.88C209.6 50.49 198.51 53 198.51 53C198.51 53 208.18 49.27 208.89 49.88ZM211.36 75.17C210.03 76.85 208.66 78.49 207.3 80.14C206.31 81.34 205.11 82.29 203.82 83.13C203.67 83.23 203.51 83.3 203.34 83.35C203.25 83.38 203.15 83.42 203.08 83.32C203.01 83.23 203.06 83.14 203.11 83.05C203.15 82.97 203.2 82.89 203.26 82.81C204.02 81.73 204.86 80.7 205.75 79.72C206.95 78.39 208.33 77.26 209.7 76.11C210.36 75.56 211.02 75 211.68 74.44C211.81 74.33 211.94 74.24 212.07 74.14C211.89 74.55 211.61 74.85 211.36 75.17ZM221.67 61.35C221.42 61.96 221 62.5 220.52 62.94C220.04 63.38 219.5 63.75 218.93 64.06C218.36 64.38 218.15 64.48 217.5 64.55C217.48 64.55 217.45 64.56 217.42 64.56C217.32 64.57 217.21 64.56 217.13 64.5C216.83 64.31 216.82 63.87 216.95 63.67C217.16 63.34 217.46 63.08 217.77 62.85C217.78 62.85 217.78 62.84 217.79 62.84C218.87 62.04 220.21 61.43 221.54 61.21C221.57 61.21 221.6 61.2 221.63 61.21C221.66 61.22 221.69 61.24 221.7 61.27C221.69 61.3 221.68 61.33 221.67 61.35ZM242.01 64.22C240.45 65.13 240.19 63.73 241.03 63.23C241.78 62.78 242.56 62.37 243.35 62.02C243.73 61.86 244.11 61.7 244.5 61.56C244.89 61.42 245.3 61.36 245.7 61.3C245.71 61.3 245.72 61.3 245.73 61.29C244.72 62.54 243.34 63.44 242.01 64.22Z" fill="url(#paint2_linear_72_1867)"/>
<path fill-rule="evenodd" clip-rule="evenodd" d="M218.42 31.7199C217.79 30.9999 217.77 30.7899 217.34 29.9199L210.58 17.4499C210.34 16.9899 210.34 16.6199 209.79 16.6199H201.7C201.29 16.6199 201.16 16.7499 201.16 17.1599V44.6599C201.16 45.0699 201.29 45.1999 201.7 45.1999C210.06 45.1999 209.65 45.7999 209.62 43.7699L209.61 29.9199C209.81 30.1499 209.69 29.9799 209.91 30.3399L212.86 35.6599C213.22 36.2799 213.57 36.9599 213.97 37.6099L216.15 41.5399C216.52 42.2199 217.89 45.1999 218.6 45.1999H226.69V16.6199H218.42V31.7199Z" fill="url(#paint3_linear_72_1867)"/>
<path fill-rule="evenodd" clip-rule="evenodd" d="M23.09 40.93C23.72 40.29 24.21 39.91 24.7 39.12C29.61 31.22 26.98 16.08 15.32 16.08H0.0400391V44.48H12.98C17.33 44.48 20.89 43.16 23.09 40.93ZM8.85004 37.11V23.45C12.05 23.45 14.33 23.05 16.54 25.29C18.88 27.66 18.66 33.07 16.63 35.36C15.66 36.45 14.09 37.11 12.09 37.11H8.85004Z" fill="url(#paint4_linear_72_1867)"/>
<path fill-rule="evenodd" clip-rule="evenodd" d="M254.9 37.8299H239.99V34.4199H253.11V27.4099H239.99V23.9899H254.54V16.6199H231.18V45.1999H254.9V37.8299Z" fill="url(#paint5_linear_72_1867)"/>
<path fill-rule="evenodd" clip-rule="evenodd" d="M121.72 37.11H106.62V33.7H119.92V26.87H106.62V23.46H120.82C121.23 23.46 121.36 23.33 121.36 22.92V16.09H97.8203V44.49H121.72V37.11Z" fill="url(#paint6_linear_72_1867)"/>
<path fill-rule="evenodd" clip-rule="evenodd" d="M44.2597 44.48H67.6297V37.11H52.5297V33.7H65.8297V26.87H52.5297V23.46H66.7297C67.1397 23.46 67.2697 23.33 67.2697 22.92V16.09H43.7197V43.95C43.7197 44.36 43.8397 44.48 44.2597 44.48Z" fill="url(#paint7_linear_72_1867)"/>
<path fill-rule="evenodd" clip-rule="evenodd" d="M82.3603 38.73C79.8403 38.73 78.5903 37.33 78.5903 34.78H69.7803C69.7803 46.39 85.1803 46.91 91.2403 42.94C95.8403 39.93 96.5703 33.45 93.3703 30.23C88.7403 25.58 79.3003 26.87 79.3003 23.45C79.3003 20.82 85.7703 21.35 85.7703 23.99V24.71H94.0403C94.0403 17.48 88.2203 15.36 81.8203 15.36C75.8803 15.36 70.8603 18.81 70.8603 24.71C70.8603 29.11 73.6903 30.71 77.0503 32C79.9503 33.12 86.5003 33.97 86.5003 36.21C86.4903 38.56 84.1803 38.73 82.3603 38.73Z" fill="url(#paint8_linear_72_1867)"/>
<path fill-rule="evenodd" clip-rule="evenodd" d="M146.88 37.11H134.48V16.08H125.68V44.48H146.88V37.11Z" fill="url(#paint9_linear_72_1867)"/>
<path d="M39.4096 16.08H30.5996V44.48H39.4096V16.08Z" fill="url(#paint10_linear_72_1867)"/>
<path fill-rule="evenodd" clip-rule="evenodd" d="M197.42 26.4399C197.42 17.7699 192.71 10.1999 185.73 6.17993L182.33 14.9999C185.88 17.5499 188.19 21.7299 188.19 26.4399C188.19 34.0099 182.23 40.1899 174.77 40.4999C174.77 40.5799 174.77 40.6599 174.77 40.7299C174.77 42.2599 174.15 43.6499 173.14 44.6599C172.13 45.6699 170.74 46.2899 169.21 46.2899C167.68 46.2899 166.29 45.6699 165.28 44.6599C164.27 43.6499 163.65 42.2599 163.65 40.7299C163.65 39.3399 164.16 38.0599 165.01 37.0799C162.04 34.4999 160.16 30.6899 160.16 26.4399C160.16 18.8899 166.08 12.7299 173.52 12.3899C173.95 10.5499 174.38 8.70993 174.8 6.84993L172.16 6.19993L171.08 5.92993L171.34 4.84993L171.73 3.23993C160.04 4.46993 150.93 14.3899 150.93 26.4499C150.93 39.3399 161.33 49.7899 174.17 49.7899C187.02 49.7799 197.42 39.3299 197.42 26.4399Z" fill="url(#paint11_linear_72_1867)"/>
<path fill-rule="evenodd" clip-rule="evenodd" d="M170.97 27.95C170.47 29.95 169.33 33.38 170.07 33.52C171.12 33.76 172.06 34.15 173.19 33.58C174.59 32.88 176.39 27.24 177 25.71L180.56 16.47L184.73 5.65996C185.07 5.18996 186.29 1.89996 186.4 1.28996C186.77 -0.800044 184.54 0.159956 182.36 0.699956C181.92 0.809956 181.29 0.969956 180.56 1.14996C177.65 1.88996 173.15 3.02996 172.92 3.12996L172.44 5.09996L176.15 6.01996C174.5 13.35 172.72 20.64 170.97 27.95ZM178.77 13.14C179.15 11.55 179.55 9.90996 179.9 8.48996C179.9 8.46996 179.91 8.45996 179.91 8.43996C179.94 8.30996 179.97 8.17996 180 8.04996C180.01 8.00996 180.02 7.96996 180.03 7.92996C180.06 7.80996 180.09 7.69996 180.11 7.58996C180.12 7.54996 180.13 7.50996 180.14 7.46996C180.17 7.35996 180.19 7.24996 180.22 7.14996C180.23 7.10996 180.24 7.06996 180.25 7.02996C180.27 6.92996 180.3 6.82996 180.32 6.73996C180.33 6.68996 180.34 6.64996 180.35 6.60996C180.37 6.52996 180.39 6.43996 180.41 6.35996C180.42 6.30996 180.43 6.25996 180.44 6.20996C180.46 6.13996 180.47 6.06996 180.49 5.99996C180.5 5.94996 180.51 5.89996 180.52 5.85996C180.53 5.79996 180.55 5.72996 180.56 5.67996C180.56 5.65996 180.57 5.63996 180.57 5.62996C180.58 5.55996 180.6 5.49996 180.61 5.42996C180.63 5.33996 180.65 5.25996 180.66 5.17996C180.67 5.13996 180.67 5.10996 180.68 5.07996C180.69 5.02996 180.7 4.97996 180.71 4.92996C180.72 4.87996 180.73 4.82996 180.74 4.77996C180.74 4.75996 180.75 4.74996 180.75 4.72996C180.76 4.67996 180.77 4.62996 180.78 4.57996C180.78 4.56996 180.78 4.56996 180.79 4.55996C180.8 4.51996 180.81 4.48996 180.82 4.44996C180.82 4.43996 180.83 4.42996 180.83 4.41996C180.84 4.38996 180.85 4.36996 180.86 4.33996C180.87 4.32996 180.87 4.31996 180.88 4.30996C180.89 4.27996 180.91 4.25996 180.93 4.23996C180.93 4.22996 180.94 4.22996 180.94 4.21996C180.96 4.18996 180.99 4.15996 181.02 4.13996C181.16 4.00996 181.39 3.89996 181.79 3.71996C182.48 3.40996 183.05 3.03996 183.76 2.82996C183.65 3.25996 183.39 4.02996 183.04 5.00996C183.01 5.08996 182.98 5.15996 182.96 5.23996C182.93 5.31996 182.9 5.40996 182.87 5.49996C182.84 5.57996 182.81 5.65996 182.78 5.73996C182.74 5.84996 182.7 5.96996 182.65 6.07996C182.63 6.13996 182.61 6.19996 182.58 6.25996C182.52 6.42996 182.45 6.60996 182.38 6.78996C182.35 6.85996 182.32 6.93996 182.29 7.01996C182.25 7.13996 182.2 7.25996 182.15 7.37996C182.12 7.45996 182.09 7.53996 182.06 7.61996C182.01 7.73996 181.97 7.85996 181.92 7.97996C181.89 8.05996 181.86 8.14996 181.82 8.22996C181.77 8.35996 181.72 8.48996 181.67 8.61996C181.64 8.68996 181.62 8.75996 181.59 8.82996C181.52 8.99996 181.46 9.17996 181.39 9.35996C181.38 9.38996 181.37 9.41996 181.35 9.44996C181.27 9.66996 181.18 9.88996 181.1 10.11C181.09 10.13 181.09 10.15 181.08 10.17C181.01 10.36 180.93 10.56 180.85 10.75C180.83 10.81 180.8 10.88 180.78 10.94C180.72 11.1 180.66 11.26 180.6 11.41C180.58 11.47 180.55 11.53 180.53 11.59C180.45 11.78 180.38 11.98 180.31 12.17C180.3 12.2 180.28 12.24 180.27 12.27C178.84 15.92 177.5 19.26 177.39 19.59C177.43 18.81 178.06 16.08 178.77 13.14Z" fill="url(#paint12_linear_72_1867)"/>
<path fill-rule="evenodd" clip-rule="evenodd" d="M169.22 36.29C166.77 36.29 164.79 38.28 164.79 40.72C164.79 43.17 166.78 45.15 169.22 45.15C171.67 45.15 173.65 43.16 173.65 40.72C173.65 38.28 171.67 36.29 169.22 36.29Z" fill="url(#paint13_linear_72_1867)"/>
</g>
<defs>
<linearGradient id="paint0_linear_72_1867" x1="82.2763" y1="57.3578" x2="377.328" y2="-39.9549" gradientUnits="userSpaceOnUse">
<stop stop-color="#AD9A5E"/>
<stop offset="0.5318" stop-color="#D8C78E"/>
<stop offset="1" stop-color="#A39155"/>
</linearGradient>
<linearGradient id="paint1_linear_72_1867" x1="95.0999" y1="96.2393" x2="390.152" y2="-1.07328" gradientUnits="userSpaceOnUse">
<stop stop-color="#AD9A5E"/>
<stop offset="0.5318" stop-color="#D8C78E"/>
<stop offset="1" stop-color="#A39155"/>
</linearGradient>
<linearGradient id="paint2_linear_72_1867" x1="98.1083" y1="105.359" x2="393.16" y2="8.04635" gradientUnits="userSpaceOnUse">
<stop stop-color="#AD9A5E"/>
<stop offset="0.5318" stop-color="#D8C78E"/>
<stop offset="1" stop-color="#A39155"/>
</linearGradient>
<linearGradient id="paint3_linear_72_1867" x1="120.895" y1="122.504" x2="237.67" y2="7.67494" gradientUnits="userSpaceOnUse">
<stop stop-color="#AD9A5E"/>
<stop offset="0.5318" stop-color="#D8C78E"/>
<stop offset="1" stop-color="#A39155"/>
</linearGradient>
<linearGradient id="paint4_linear_72_1867" x1="20.1593" y1="20.0607" x2="136.935" y2="-94.7682" gradientUnits="userSpaceOnUse">
<stop stop-color="#AD9A5E"/>
<stop offset="0.5318" stop-color="#D8C78E"/>
<stop offset="1" stop-color="#A39155"/>
</linearGradient>
<linearGradient id="paint5_linear_72_1867" x1="135.152" y1="137.003" x2="251.927" y2="22.1736" gradientUnits="userSpaceOnUse">
<stop stop-color="#AD9A5E"/>
<stop offset="0.5318" stop-color="#D8C78E"/>
<stop offset="1" stop-color="#A39155"/>
</linearGradient>
<linearGradient id="paint6_linear_72_1867" x1="69.3217" y1="70.0561" x2="186.097" y2="-44.7728" gradientUnits="userSpaceOnUse">
<stop stop-color="#AD9A5E"/>
<stop offset="0.5318" stop-color="#D8C78E"/>
<stop offset="1" stop-color="#A39155"/>
</linearGradient>
<linearGradient id="paint7_linear_72_1867" x1="42.7258" y1="43.0101" x2="159.501" y2="-71.8189" gradientUnits="userSpaceOnUse">
<stop stop-color="#AD9A5E"/>
<stop offset="0.5318" stop-color="#D8C78E"/>
<stop offset="1" stop-color="#A39155"/>
</linearGradient>
<linearGradient id="paint8_linear_72_1867" x1="56.0979" y1="56.6082" x2="172.873" y2="-58.2208" gradientUnits="userSpaceOnUse">
<stop stop-color="#AD9A5E"/>
<stop offset="0.5318" stop-color="#D8C78E"/>
<stop offset="1" stop-color="#A39155"/>
</linearGradient>
<linearGradient id="paint9_linear_72_1867" x1="82.3537" y1="83.3096" x2="199.129" y2="-31.5195" gradientUnits="userSpaceOnUse">
<stop stop-color="#AD9A5E"/>
<stop offset="0.5318" stop-color="#D8C78E"/>
<stop offset="1" stop-color="#A39155"/>
</linearGradient>
<linearGradient id="paint10_linear_72_1867" x1="32.5648" y1="32.6769" x2="149.34" y2="-82.1521" gradientUnits="userSpaceOnUse">
<stop stop-color="#AD9A5E"/>
<stop offset="0.5318" stop-color="#D8C78E"/>
<stop offset="1" stop-color="#A39155"/>
</linearGradient>
<linearGradient id="paint11_linear_72_1867" x1="99.0664" y1="100.306" x2="215.842" y2="-14.5234" gradientUnits="userSpaceOnUse">
<stop stop-color="#AD9A5E"/>
<stop offset="0.5318" stop-color="#D8C78E"/>
<stop offset="1" stop-color="#A39155"/>
</linearGradient>
<linearGradient id="paint12_linear_72_1867" x1="150.598" y1="22.3897" x2="199.254" y2="12.9504" gradientUnits="userSpaceOnUse">
<stop stop-color="#AD9A5E"/>
<stop offset="0.5318" stop-color="#D8C78E"/>
<stop offset="1" stop-color="#A39155"/>
</linearGradient>
<linearGradient id="paint13_linear_72_1867" x1="154.702" y1="43.5455" x2="203.358" y2="34.1061" gradientUnits="userSpaceOnUse">
<stop stop-color="#AD9A5E"/>
<stop offset="0.5318" stop-color="#D8C78E"/>
<stop offset="1" stop-color="#A39155"/>
</linearGradient>
<clipPath id="clip0_72_1867">
<rect width="297.49" height="85.13" fill="white"/>
</clipPath>
</defs>
</svg>
